<svg width="56" height="56" viewBox="0 0 56 56" xmlns="http://www.w3.org/2000/svg">
    <g fill="none" fill-rule="evenodd">
        <path d="M28 0c15.464 0 28 12.536 28 28S43.464 56 28 56 0 43.464 0 28 12.536 0 28 0zm0 16.28c-6.473 0-11.72 5.247-11.72 11.72 0 6.473 5.247 11.72 11.72 11.72 6.473 0 11.72-5.247 11.72-11.72 0-6.473-5.247-11.72-11.72-11.72z" fill="#6F6F6F"/>
        <path d="M41.77 20.14a6.595 6.595 0 1 1 0 13.189 6.595 6.595 0 0 1 0-13.19zm.08 3.235a.514.514 0 0 0-.525.5v.5c-.87 0-1.575.671-1.575 1.5 0 .828.705 1.5 1.575 1.5h1.05c.29 0 .525.224.525.5s-.235.5-.525.5h-2.1a.512.512 0 0 0-.525.5c0 .276.235.5.524.5h1.05v.5c0 .276.236.5.526.5.29 0 .525-.224.525-.5v-.5c.87 0 1.575-.671 1.575-1.5s-.706-1.5-1.575-1.5h-1.05a.514.514 0 0 1-.525-.5c0-.276.235-.5.525-.5h2.1c.29 0 .525-.224.525-.5s-.235-.5-.525-.5h-1.05v-.5c0-.276-.235-.5-.525-.5z" fill="#EEE"/>
        <path d="M43.287 36.566a.84.84 0 0 1 .289 1.152c-3.211 5.357-9.08 8.685-15.319 8.685-3.99 0-7.824-1.322-10.946-3.75l.348 1.552a.84.84 0 1 1-1.639.367l-.847-3.775a.84.84 0 0 1 .636-1.004l3.776-.847a.84.84 0 1 1 .368 1.639l-1.981.445a16.117 16.117 0 0 0 10.285 3.693c5.651 0 10.969-3.015 13.878-7.868a.84.84 0 0 1 1.152-.289zM27.937 20.75c.544 0 .985.42.985.938v.936h1.968c.544 0 .985.42.985.938 0 .517-.441.938-.985.938h-3.937c-.544 0-.985.42-.985.938 0 .517.441.937.985.937h1.97c1.63 0 2.952 1.259 2.952 2.812 0 1.554-1.323 2.812-2.953 2.812v.938c0 .518-.441.938-.985.938-.543 0-.984-.42-.984-.938V32h-1.97c-.543 0-.983-.419-.983-.937s.44-.937.983-.937h3.94c.543 0 .983-.42.983-.938 0-.517-.44-.937-.984-.937h-1.97c-1.63 0-2.952-1.26-2.952-2.812 0-1.554 1.321-2.814 2.953-2.814v-.936c0-.518.441-.938.985-.938zm10.526-10.638.779 3.791a.84.84 0 0 1-.654.992l-3.79.778a.84.84 0 0 1-.338-1.646l1.905-.391a16.13 16.13 0 0 0-8.108-2.178 16.126 16.126 0 0 0-14.36 8.734.84.84 0 0 1-1.492-.773 17.8 17.8 0 0 1 15.852-9.64c3.143 0 6.21.821 8.912 2.38l-.351-1.709a.84.84 0 1 1 1.645-.338z" fill="#FF8861"/>
    </g>
</svg>
