<svg width="56" height="56" viewBox="0 0 56 56" xmlns="http://www.w3.org/2000/svg" xmlns:xlink="http://www.w3.org/1999/xlink">
    <defs>
        <path id="0velvwmkta" d="M0 0h30.625v30.625H0z"/>
    </defs>
    <g fill="none" fill-rule="evenodd">
        <path d="M56 28c0 15.464-12.536 28-28 28S0 43.464 0 28 12.536 0 28 0s28 12.536 28 28" fill="#6F6F6F"/>
        <g transform="translate(13.125 13.125)">
            <mask id="7bbyc1oinb" fill="#fff">
                <use xlink:href="#0velvwmkta"/>
            </mask>
            <path d="M0 25.904V4.72A4.735 4.735 0 0 1 4.721 0h21.183a4.735 4.735 0 0 1 4.721 4.72v21.184a4.735 4.735 0 0 1-4.721 4.721H4.72A4.735 4.735 0 0 1 0 25.904" fill="#FFF" mask="url(#7bbyc1oinb)"/>
        </g>
        <path d="M17.126 25.426a.874.874 0 0 1-.875-.875c0-4.576 3.724-8.3 8.301-8.3.484 0 .885.391.885.875 0 .483-.38.875-.865.875h-.02a6.558 6.558 0 0 0-6.551 6.55.874.874 0 0 1-.875.875M39.75 25.427a.874.874 0 0 1-.875-.875 6.558 6.558 0 0 0-6.552-6.55c-.483 0-.898-.393-.898-.876 0-.484.367-.875.851-.875 4.625 0 8.349 3.724 8.349 8.301a.874.874 0 0 1-.875.875M24.572 40.624c-4.597 0-8.321-3.724-8.321-8.302 0-.483.391-.907.875-.907s.875.358.875.84v.067a6.559 6.559 0 0 0 6.552 6.552c.483 0 .884.39.884.875 0 .483-.381.875-.865.875M32.323 40.624c-.484 0-.898-.392-.898-.875 0-.484.368-.875.851-.875h.047a6.558 6.558 0 0 0 6.551-6.552c0-.483.392-.907.875-.907.484 0 .875.358.875.84 0 4.645-3.724 8.369-8.3 8.369" fill="#DDD"/>
        <path d="M40.46 29.28H16.389a.875.875 0 1 1 0-1.75H40.46a.874.874 0 1 1 0 1.75" fill="#FF8861"/>
    </g>
</svg>
