<svg width="56" height="56" viewBox="0 0 56 56" xmlns="http://www.w3.org/2000/svg">
    <g fill="none" fill-rule="evenodd">
        <path d="M28 56C12.536 56 0 43.464 0 28S12.536 0 28 0s28 12.536 28 28-12.536 28-28 28z" fill="#6F6F6F"/>
        <path d="M37.625 16.942c0-2.58-1.822-4.692-4.048-4.692H16.298c-2.226 0-4.048 2.112-4.048 4.692v22.116c0 2.58 1.822 4.692 4.048 4.692h17.279c2.226 0 4.048-2.112 4.048-4.692V16.942z" fill="#FFF"/>
        <path d="M16.398 33.344c.103-.208.897-1.793 1.46-2.307.096-.088.32-.302.558-.25.1.023.194.078.269.167.88 1.045 1.696 2.134 1.97 3.499.19.94-.134 1.733-.91 2.31-.766.573-1.623.662-2.492.231 0 0-.468-.231-.788-.605-.58-.68-.61-1.885-.067-3.045M20.708 22.313v2.734a1.1 1.1 0 0 1-1.1 1.1h-2.5a1.1 1.1 0 0 1-1.099-1.1v-2.734h.234l-.234.192h4.7l-.235-.192h.234z" fill="#555"/>
        <path stroke="#555" stroke-width="1.1" fill="#555" stroke-linejoin="round" d="m18.359 20.588 2.35 1.917h-4.7z"/>
        <path d="M18.993 26.236c0-.358.013-.76-.004-1.113-.014-.302-.296-.538-.617-.55-.375-.015-.685.254-.688.602-.003.325-.001.65 0 .975l.001.086h1.308z" fill="#FFF"/>
        <path stroke="#DDD" stroke-width="1.422" stroke-linecap="round" stroke-linejoin="round" d="M23.87 21.051h6.835M23.737 24.757h7.1M23.737 33.096h7.1M23.737 36.801h7.1"/>
        <g>
            <path d="M39.812 37.625a9.188 9.188 0 1 1 0-18.375 9.188 9.188 0 0 1 0 18.375z" fill="#FF8861"/>
            <path d="M42.224 26.075a.797.797 0 0 0 .804-.788.797.797 0 0 0-.804-.788h-1.607v-.786a.797.797 0 0 0-.805-.788.797.797 0 0 0-.804.788v.786c-1.332 0-2.411 1.059-2.411 2.364 0 1.303 1.079 2.362 2.411 2.362h1.609c.443 0 .803.353.803.787 0 .435-.36.788-.803.788H37.4a.795.795 0 0 0-.803.787c0 .436.36.787.803.787h1.608v.788c0 .435.36.788.804.788a.797.797 0 0 0 .805-.788v-.788c1.33 0 2.411-1.057 2.411-2.362 0-1.305-1.08-2.362-2.411-2.362h-1.609a.797.797 0 0 1-.804-.787c0-.435.36-.788.804-.788h3.216z" fill="#FFF"/>
        </g>
    </g>
</svg>
