<svg width="56" height="56" viewBox="0 0 56 56" xmlns="http://www.w3.org/2000/svg">
    <g fill="none" fill-rule="evenodd">
        <circle fill="#BEE5D0" cx="28" cy="28" r="28"/>
        <path d="M12 12h32v32H12z"/>
        <path d="M34.164 16H21.836C20.822 16 20 16.82 20 17.832v21.67c0 1.011.822 1.831 1.836 1.831h3.257v-4.57c0-.446.363-.808.81-.808h4.194a.81.81 0 0 1 .81.808v4.57h3.257c1.014 0 1.836-.82 1.836-1.832v-21.67A1.835 1.835 0 0 0 34.164 16" fill="#6F6F6F"/>
        <path d="M26.052 20.885H23.06a.299.299 0 0 1-.3-.3V19.38c0-.165.135-.299.3-.299h2.993c.166 0 .3.134.3.3v1.205a.299.299 0 0 1-.3.299M32.94 20.885h-2.993a.299.299 0 0 1-.3-.3V19.38c0-.165.135-.299.3-.299h2.993c.166 0 .3.134.3.3v1.205a.299.299 0 0 1-.3.299M26.052 24.788H23.06a.299.299 0 0 1-.3-.298v-1.206c0-.165.135-.299.3-.299h2.993c.166 0 .3.134.3.299v1.206a.299.299 0 0 1-.3.298M32.94 24.788h-2.993a.299.299 0 0 1-.3-.298v-1.206c0-.165.135-.299.3-.299h2.993c.166 0 .3.134.3.299v1.206a.299.299 0 0 1-.3.298M26.052 28.692H23.06a.299.299 0 0 1-.3-.298v-1.206c0-.165.135-.299.3-.299h2.993c.166 0 .3.134.3.299v1.206a.299.299 0 0 1-.3.298M32.94 28.692h-2.993a.299.299 0 0 1-.3-.298v-1.206c0-.165.135-.299.3-.299h2.993c.166 0 .3.134.3.299v1.206a.299.299 0 0 1-.3.298M26.052 32.596H23.06a.299.299 0 0 1-.3-.299v-1.205c0-.165.135-.299.3-.299h2.993c.166 0 .3.134.3.299v1.205a.299.299 0 0 1-.3.3M32.94 32.596h-2.993a.299.299 0 0 1-.3-.299v-1.205c0-.165.135-.299.3-.299h2.993c.166 0 .3.134.3.299v1.205a.299.299 0 0 1-.3.3" fill="#FFF"/>
    </g>
</svg>
