<svg width="56" height="56" viewBox="0 0 56 56" xmlns="http://www.w3.org/2000/svg">
    <g fill="none" fill-rule="evenodd">
        <circle fill="#BEE5D0" cx="28" cy="28" r="28"/>
        <path d="M12 12h32v32H12z"/>
        <path d="M39.127 27.303c-.302-.303-.664-.848-.724-1.515 0-.182-.06-.364-.06-.546-.302-1.151-1.146-2.06-2.232-2.424a.456.456 0 0 1-.241-.121c-.422-.182-.845-.485-1.086-.97-.663-1.212-1.99-1.94-3.498-1.757-.603.06-1.207-.06-1.629-.364a3.523 3.523 0 0 0-1.99-.606c-.784 0-1.388.242-1.99.606-.423.364-1.026.546-1.69.424-1.508-.182-2.835.546-3.498 1.758-.241.606-.784.909-1.267 1.09-1.206.425-2.171 1.516-2.352 2.97-.06.667-.483 1.213-.724 1.516C15.362 28.152 15 29.06 15 30.03v.06c0 1.88 1.448 3.455 3.257 3.698.181 0 .362.06.543.06h5.429c.542 0 .965.425.965.97v.243c0 .848-.845.97-.845.97l-4.403.787c-.18 0-.302.121-.302.303v.546H35.75v-.546c0-.182-.12-.242-.301-.303l-4.464-.788s-.844-.12-.844-.97v-.242c0-.545.422-.97.965-.97h5.428c2.111 0 3.8-1.696 3.8-3.818-.06-.97-.422-1.878-1.206-2.727z" fill="#6F6F6F" fill-rule="nonzero"/>
    </g>
</svg>
