<svg width="56" height="56" viewBox="0 0 56 56" xmlns="http://www.w3.org/2000/svg">
    <g fill="none" fill-rule="evenodd">
        <path d="M56 28c0 15.464-12.536 28-28 28S0 43.464 0 28 12.536 0 28 0s28 12.536 28 28" fill="#6F6F6F"/>
        <path d="m39.633 23.007-15.579 9.361c-1.284.772-2.956.371-3.714-.891l-5.805-9.661c-.759-1.262-.328-2.926.957-3.698L31.07 8.757c1.284-.772 2.956-.37 3.714.891l5.805 9.661c.759 1.262.328 2.926-.957 3.698" fill="#FFF"/>
        <path fill="#FF8861" d="m17.208 26.265 20.25-12.168-1.911-3.182-20.25 12.168z"/>
        <g>
            <path d="M38.602 43.75h-22.56c-2.086 0-3.792-1.56-3.792-3.467V24.467c0-1.907 1.706-3.467 3.792-3.467h22.56c2.085 0 3.791 1.56 3.791 3.467v15.816c0 1.907-1.706 3.467-3.791 3.467" fill="#BEBEBE"/>
            <path d="M42.254 34.613h-4.988c-.822 0-1.495-.703-1.495-1.563v-2.01c0-.86.673-1.563 1.495-1.563h4.988c.823 0 1.496.703 1.496 1.563v2.01c0 .86-.673 1.563-1.496 1.563" fill="#FFF"/>
        </g>
    </g>
</svg>
