<svg width="56" height="56" viewBox="0 0 56 56" xmlns="http://www.w3.org/2000/svg">
    <g fill="none" fill-rule="evenodd">
        <path d="M56 28c0 15.464-12.536 28-28 28S0 43.464 0 28 12.536 0 28 0s28 12.536 28 28" fill="#6F6F6F"/>
        <path d="M13.125 38.792v-20.71c0-2.726 2.023-4.957 4.496-4.957h21.633c2.473 0 4.496 2.23 4.496 4.958v20.71c0 2.726-2.023 4.957-4.496 4.957H17.62c-2.473 0-4.496-2.23-4.496-4.958" fill="#FFF"/>
        <path d="M26.996 29.35h-2.06a.904.904 0 0 1-.895-.913c0-.504.4-.912.895-.912h1.166v-3.857c0-.505.4-.913.894-.913h1.88v-4.342c0-.504.4-.913.894-.913s.894.409.894.913v5.255c0 .504-.4.912-.894.912h-1.88v3.857c0 .504-.4.913-.894.913" fill="#FF8861"/>
        <path d="M19.498 19.325a.213.213 0 0 0-.209.213v2.939c0 .115.096.213.209.213h2.88a.214.214 0 0 0 .209-.213v-2.94a.213.213 0 0 0-.209-.212h-2.88zm2.88 5.19h-2.88c-1.101 0-1.998-.914-1.998-2.038v-2.94c0-1.123.897-2.037 1.998-2.037h2.88c1.102 0 1.998.914 1.998 2.038v2.939c0 1.124-.896 2.038-1.998 2.038z" fill="#555"/>
        <path d="M19.498 34.185a.213.213 0 0 0-.209.213v2.939c0 .115.096.213.209.213h2.88a.214.214 0 0 0 .209-.213v-2.939a.213.213 0 0 0-.209-.213h-2.88zm2.88 5.19h-2.88c-1.101 0-1.998-.914-1.998-2.038v-2.939c0-1.124.897-2.038 1.998-2.038h2.88c1.102 0 1.998.914 1.998 2.038v2.939c0 1.124-.896 2.038-1.998 2.038zM34.497 19.325a.213.213 0 0 0-.209.213v2.939c0 .115.095.213.209.213h2.88a.214.214 0 0 0 .209-.213v-2.94a.213.213 0 0 0-.209-.212h-2.88zm2.88 5.19h-2.88c-1.102 0-1.998-.914-1.998-2.038v-2.94c0-1.123.896-2.037 1.998-2.037h2.88c1.102 0 1.998.914 1.998 2.038v2.939c0 1.124-.896 2.038-1.998 2.038z" fill="#FF8861"/>
        <path d="M34.497 34.185a.213.213 0 0 0-.209.213v2.939c0 .115.095.213.209.213h2.88a.214.214 0 0 0 .209-.213v-2.939a.213.213 0 0 0-.209-.213h-2.88zm2.88 5.19h-2.88c-1.102 0-1.998-.914-1.998-2.038v-2.939c0-1.124.896-2.038 1.998-2.038h2.88c1.102 0 1.998.914 1.998 2.038v2.939c0 1.124-.896 2.038-1.998 2.038z" fill="#555"/>
        <path d="M26.917 39.375a.904.904 0 0 1-.895-.913V36.2c0-.505.4-.913.895-.913h2.037v-4.262c0-.504.4-.912.895-.912.494 0 .894.408.894.912V36.2c0 .504-.4.912-.894.912h-2.037v1.351c0 .504-.4.913-.895.913M38.48 31.048h-3.638a.904.904 0 0 1-.895-.913v-2.079h-1.8a.904.904 0 0 1-.894-.912c0-.504.4-.913.894-.913h2.695c.494 0 .894.409.894.913v2.079h2.744c.495 0 .895.408.895.912s-.4.913-.895.913M21.37 29.473h-2.975a.904.904 0 0 1-.895-.912c0-.505.4-.913.895-.913h2.975c.494 0 .894.408.894.913 0 .504-.4.912-.894.912" fill="#FF8861"/>
    </g>
</svg>
