<svg width="56" height="56" viewBox="0 0 56 56" xmlns="http://www.w3.org/2000/svg">
    <g fill="none" fill-rule="evenodd">
        <circle fill="#B8B8B8" cx="28" cy="28" r="28"/>
        <path d="M12 12h32v32H12z"/>
        <path d="M32.86 25.045c2.95 1.88 4.953 5.494 4.953 9.64 0 1.847-.393 3.134-1.198 3.936-1.26 1.254-3.592 1.373-6.344 1.379h-.668l-.34-.001-1.023-.005-1.023.005h-1.01c-2.758-.005-5.084-.124-6.343-1.378-.807-.802-1.197-2.09-1.197-3.937 0-3.931 1.806-7.378 4.507-9.326a6.39 6.39 0 0 0 9.686-.313zM27.879 16a5.022 5.022 0 0 1 5.016 5.014 5.02 5.02 0 0 1-5.016 5.015 5.02 5.02 0 0 1-5.014-5.015A5.02 5.02 0 0 1 27.879 16z" fill="#FFF"/>
    </g>
</svg>
